<?xml version="1.0" encoding="utf-8"?>
<!-- Generator: Adobe Illustrator 24.1.2, SVG Export Plug-In . SVG Version: 6.00 Build 0)  -->
<svg version="1.0" id="Camada_1" xmlns="http://www.w3.org/2000/svg" xmlns:xlink="http://www.w3.org/1999/xlink" x="0px" y="0px"
	 viewBox="0 0 1080 1080" style="enable-background:new 0 0 1080 1080;" xml:space="preserve">
<style type="text/css">
	.st0{fill:#FCFCFC;}
	.st1{fill:#0068FF;}
	.st2{fill:#4E4FEB;}
	.st3{fill:#FBFBFB;}
	.st4{fill:#FAFAFA;}
</style>
<g>
	<path class="st0" d="M837.5,332c12.6,13.1,23.5,26.8,32.4,41.9c16.1,27.2,22.3,56.7,20.2,88.1c-0.9,13.1-2.2,26.2-4.2,39.2
		c-0.4,2.5,0.5,4.4,1.5,6.4c8.6,17.7,15.6,35.9,17.8,55.6c3.3,28.7-1.2,56.1-12.3,82.7c-7,16.7-16.4,31.9-27.7,46
		c-1.3,1.7-2.5,3.3-2.7,5.6c-1.9,25.1-11.4,47.6-24.4,68.8c-10.8,17.6-24.3,33.2-37.5,48.9c-2.4,2.9-4.7,2-5.8-2.2
		c-4.1-16-9-31.7-16-46.7c-4-8.5-8.2-16.8-13.5-25.5c-5.3,13.7-11.5,26.2-18.7,38.2c-5.5,9.3-11.2,18.6-15.7,28.4
		c-4,8.7-7.4,17.6-7.9,27.3c-0.2,3.6-2.2,4.6-5.5,2.8c-9.7-5.2-19.5-10.1-28-17.6c-9.8,26.2-29.1,44.5-49.7,61.7
		c-20.3,16.9-41.3,33-59.3,52.6c-16.3,17.9-30.1,37.3-37.3,60.8c-0.5,1.8-1,2.9-3.1,2.9c-1.8,0-2.5-1-3-2.6
		c-8.9-28.9-27.1-51.6-48.3-72.4c-17.3-16.9-36.8-31.2-55.1-47C417,861.4,401.9,845.7,393,825c-0.7-1.6-1.3-3.2-2.1-5.2
		c-8.6,7.4-18.4,12.3-28,17.6c-3,1.7-5.2,1.3-5.5-2.3c-1.4-18.1-10.3-33.2-19-48.4c-8.5-14.7-17.3-29.2-22.8-45.3
		c-1.7,0.1-2,1.4-2.5,2.3c-12.4,21.6-21.8,44.4-27.3,68.7c-0.4,1.8-0.7,3.5-2.8,4.1c-2,0.5-2.8-1.1-3.8-2.3
		c-16.3-18.6-31.8-37.6-43.5-59.5c-9.7-18-16.2-37-17.9-57.4c-0.2-2.2-1.1-3.6-2.4-5.1c-22.1-26.8-35.8-57.2-40.2-91.7
		c-3.6-27.6-0.2-54.6,12.1-79.5c6.5-13.1,6.6-25.5,4.8-39.2c-4-31.3-3.4-62.4,10.1-91.9c8.9-19.7,21.4-36.9,35.9-52.8
		c1.5-1.6,3.5-2.9,4.4-5.3c-13.8-4.5-26-11.6-36.7-21.2c-1.3-1.2-3.1-2.2-2.5-4.3c0.5-2,2.4-1.8,3.9-2.3c11.9-4,21.8-11.3,30.8-19.8
		c12.7-12.1,24-25.5,35.9-38.4c1.2-1.3,1.9-2.2,0.6-4.1c-14.8-22.6-14.1-46.7-6.6-71.4c4.2-13.7,10.7-26.3,16.7-39.2
		c2.2-4.9,4.1-9.8,5.4-15c0.6-2.3,0.9-4.3-0.2-6.9c-1.7-3.8,1.6-4,4.4-3.6c15.7,2.1,30.6-0.8,45.1-6.7c4.2-1.7,8.6-2.9,12.9-4.1
		c17.8-5.1,35.3-4,52.2,3.6c3.2,1.4,5.7,1.4,8.7,0.1c7.7-3.4,15.4-6.6,23.9-7.6c9.2-1.1,18.1-0.1,26.8,2.7c2.5,0.8,4.7,0.7,7.3-0.2
		c15.4-5.3,30.7-6.7,45.3,2.4c4.4,2.8,8.3,6.3,11.4,10.4c2.4,3.1,3.8,3.4,7,0.8c10.3-8.5,21.3-15.9,34-20.3
		c14.7-5.1,29.4-6.3,44.1-0.1c2.1,0.9,3.9,0.7,6,0c20.5-7,39.5-4,56.8,9.2c1.6,1.2,2.8,1.8,4.8,1.1C700,89,719.6,90.5,739,98
		c15.6,6.1,31.4,9.8,48.3,7.4c3.8-0.5,5,1.3,3,4.5c-1.1,1.8-0.5,3.1-0.1,4.5c2.1,9.4,6.2,18,10.4,26.6c7.7,15.8,14.2,31.9,16.4,49.5
		c2.2,17.9-0.5,34.9-10.5,50.3c-1.4,2.1-1.7,3.4,0.2,5.3c11.7,12.2,22.4,25.2,34.6,36.9c9.6,9.3,20,17.5,33.2,21.3
		c3.4,1,3.6,3.2,0.5,6C864.2,320,852,327.4,837.5,332z"/>
	<path class="st1" d="M417.9,455.7c-0.6-10.8-1.5-21.6-4-32.2c-4.5-19-13.8-35.8-23.6-52.4c-7-11.9-14-23.7-19.9-36.1
		c-11.3-23.6-11.3-47.3-3.1-71.7c10.7-31.8,26.4-60.8,47.8-86.6c1.6-1.9,3.3-2.8,5.7-2.9c4.2-0.1,8.4-0.6,12.4-2
		c6.6-2.3,13.2-3.5,20.3-3.6c12.8-0.2,24.7-4.5,36.2-10.1c2-1,4-2,6.5-3.2c-0.1,9.1,0.2,17.7,1.2,26.2c2.4,20.3,12.9,35.9,28.7,48.4
		c7.7,6,16,11,24,16.5c2.6,1.8,3.7,0.2,4.6-2.1c2.8-7,4-14.3,3.3-22.4c6.5,2.1,12.6,2.5,18.8,1.1c3.1-0.6,5.9-1.6,8.6-3.1
		c5.5-3.1,5.6-3.6,1.1-7.8c-1.9-1.8-2.3-4.2-2.9-6.6c-1.8-8.2-2.6-16.6-3.1-25.1c-0.8-11-1.3-22-4.1-33.4c18.6,4.4,36.6,4.5,54.6-1
		c0.6,1.8,0.4,3.8,2.7,4.7c15.6,6.3,25.6,19,35.5,31.6c22,28.1,38.2,59.2,47.1,93.9c5.7,22.3,1.6,43.2-8.6,63.5
		c-8.9,17.7-19.8,34.1-29,51.6c-10.3,19.7-15.8,40.6-16.3,62.9c0,0.6-0.1,1.2-0.2,2.7c-6.4-6.5-12.3-12.4-19.7-16.5
		c-1-0.5-2-1.1-3-1.6c-1.2-0.5-2.3-0.1-3,0.8c-0.9,1.2-0.7,2.5,0.4,3.5c1,0.8,2.1,1.5,3.2,2.2c45.7,28.8,45.2,92.5-1,120.5
		c-13.2,8-27,9.3-41.1,1.8c-19.8-10.5-36.5-24.5-50.1-42.4c-2.3-3-1.8-4.5,0.9-6.8c10-8.5,19.8-17.3,29.6-26
		c4.1-3.7,7.5-8.1,10.4-12.8c3.1-5,5.4-10.3,2-15.9c-3.5-6-9.3-8.3-16-8.1c-6.1,0.2-11.7,2.4-17.5,3.8c-14.4,3.3-28.7,1.5-43-0.4
		c-5.1-0.7-10.3-1.6-15.4-2.1c-9.9-1-14.1,5.1-10.1,14.2c5.5,12.5,15,21.8,24.6,31c6.1,5.8,12.2,11.7,18.4,17.4c2,1.8,2.5,3,0.6,5.5
		c-13.4,17.8-30,31.7-49.5,42.3c-14.3,7.8-28.5,7.1-41.9-1.4c-25.1-16-37.9-38.8-34.5-68.9c2.5-22.2,14.2-39.2,32.9-51.3
		c0.8-0.5,1.7-1,2.5-1.5c1.4-1.1,3.2-2.2,1.7-4.3c-1.3-1.9-3.1-1.2-4.8-0.3c-6.8,3.9-12.8,8.8-18.2,14.4
		C420,454.3,419.6,455.5,417.9,455.7z"/>
	<path class="st1" d="M540,986.5c-6.1-15.6-14.1-29-23.8-41.4c-9.5-12.2-19.9-23.6-31.7-33.5c-4.8-4.1-7-8.8-8-14.8
		c-8.9-52.6-2.2-103.3,19-152c11.8-27.3,16.7-55.7,14.1-85.3c-0.2-2.1-0.6-4.2-0.9-6.2c-0.3-2.1-0.6-4.2-1-7.3
		c11.2,11.2,23.8,19.8,29.3,34.6c0.6,1.5,1.2,2.6,3,2.7c1.5,0.1,2.4-0.6,2.9-2c3.3-10.1,10.6-17.3,18-24.3
		c3.5-3.3,7.1-6.5,10.9-10.1c0.8,3.8-0.4,7.1-0.8,10.3c-3.6,30.9,1.7,60.3,14.1,88.6c15.9,36.6,23.4,74.9,22.1,114.9
		c-0.5,14.5-2.3,28.7-4.9,42.9c-0.5,2.9-2.5,4.4-4.5,6.1c-22.1,19.9-41.9,41.5-54.3,69C542.4,980.8,541.4,983.2,540,986.5z"/>
	<path class="st1" d="M717.7,831.3c-7.8-4.2-15-8.2-21.6-13.2c-3.4-2.6-5.2-5.3-4.1-10.3c2.5-11.8,0.8-23.6-1.2-35.3
		c-3.9-22.5-1.2-44.5,3.6-66.6c3.8-17.5,8.2-35,10.4-52.8c3.5-27.6-2.3-53.4-13.5-78.4c-4.6-10.2-9.8-20.1-15.6-29.6
		c-1.4-2.2-2.6-4.8-7-1.1c6.5-11.7,10-22.5,11.1-34.1c0.4-4.9-0.1-9.7-0.5-14.5c-0.2-2-0.2-3.8,1.1-5.5c15-19.2,28.3-39.4,39.6-61.8
		c2.1,3.9,2.4,7.7,3.5,11.3c6.7,23,15.8,45.1,24.2,67.5c11.2,29.9,17.3,60.9,20.1,92.7c2,23.6,4.2,47.2,4.2,70.9
		c0,36-9.2,69.4-27.1,100.5c-7.4,12.9-15.5,25.4-21.2,39.3C720.9,816.9,718.8,823.6,717.7,831.3z"/>
	<path class="st1" d="M410.3,542.9c-2.3-1.6-3.9-0.8-5.2,1.4c-18.1,30.4-32.5,62-30.6,98.6c1,17.9,5,35.2,9,52.6
		c5,21.7,9.7,43.4,7.4,65.8c-0.9,9.2-2.2,18.3-3.4,27.5c-0.9,6.8-0.7,13.7,0.8,20.3c0.9,3.8-0.4,5.9-2.9,7.9
		c-6.9,5.7-14.7,9.9-22.9,14.4c-3.5-22-15.3-40-26.1-58.3c-21.8-37-30.6-76.9-27.9-119.6c1.7-26.7,3.5-53.4,7.1-79.9
		c3.8-28.2,12.4-55.1,22.5-81.6c7.8-20.3,15.8-40.7,21-61.9c0.1-0.6,0.5-1.1,0.9-1.9c11.3,22.2,24.4,43,39.9,62.2
		c0.8,1,1.4,2.1,1.2,3.5c-2.6,16.8,0.6,32.5,8.6,47.3c0.3,0.5,0.1,1.2,0.2,1.8L410.3,542.9z"/>
	<path class="st1" d="M444.3,877.7c-17.7-15-33.9-30-44.3-50.3c-1.6-3.2-2.4-6.3-1.5-10.1c9.2-40.3,13.6-81.1,12.9-122.5
		c-0.4-23.1-3-45.9-5.4-68.8c-2.1-20.6-2.4-41.1,7.3-60.4c1.7-3.3,3-8,6-9.1c3.2-1.1,5,3.9,7.6,6c5.2,4.2,10.6,8,16.8,10.5
		c3.5,1.5,6.2,3.6,8.2,7c9.9,16.4,18.9,33.2,22.2,52.3c0.6,3.5,1,7.1,1.3,10.6c0.3,4.1,2.3,4.7,5.4,2.6c4.5-3.1,9.2-6.1,13.3-9.7
		c2.8-2.5,4-1.4,5.4,1c0.7,1.2,1.1,2.6,1.6,4c5.3,17.5,0.1,33.9-5.4,50.2c-6.4,19-15.2,37-23.5,55.3
		C453.4,787.1,442,821.9,444.3,877.7z"/>
	<path class="st1" d="M635.7,877.8c3.8-50.5-9.9-95.7-31.1-139.3c-10.7-22.1-20.5-44.6-26.1-68.8c-2.3-10.2-1.2-19.9,0.8-29.8
		c0.5-2.5,2.3-4.2,3.8-6.3c5.1,4.4,10.4,8.3,16,11.8c3.8,2.3,5.5,1.6,5.7-2.7c1.2-24.8,12.7-45.5,25.5-65.7c0.7-1.2,1.6-1.9,2.9-2.4
		c5.2-1.9,9.9-4.8,14.4-7.9c4.5-3.2,8.6-6.9,12.6-11.4c5.3,6.4,8.7,13.6,11,21.3c4.3,14,4.8,28.4,3.4,42.9c-2.8,29.5-6.4,59-6,88.8
		c0.5,36.8,4.6,73.1,12.9,108.9c0.8,3.4,0.6,6.3-1,9.3C670.5,847.1,654,862.3,635.7,877.8z"/>
	<path class="st2" d="M623.3,577.5c-11.6,19.4-21.7,38.6-23.7,61.4c-5.4-3.2-9.6-6.9-13.8-10.7c-2.3-2.1-4.4-2.7-6.3,0.5
		c-4.9,8-11.8,14.2-18.6,20.4c-7.7,7.1-15.3,14.3-20.8,24.1c-7.2-13.1-18.6-21.6-28.5-31.5c-3.8-3.8-7.4-7.7-10.2-12.3
		c-2.3-3.7-4.5-3.5-7.3-0.8c-4,3.8-8.2,7.3-13.3,10.4c-2.2-22.8-12.1-42.2-23.8-61.5c18.6,2.4,32.4-7.2,46.2-16.6
		c12.6-8.6,23.5-19.3,32.7-31.6c3.8-5,4.9-4.9,8.7,0.1c14.1,18.5,31.6,32.8,52.2,43.5C604.6,576.9,612.3,578.2,623.3,577.5z"/>
	<path class="st2" d="M180,577.9c-0.3-18.1,3.6-35.4,10.7-51.8c16.1-37,37.9-70.6,62.2-102.8c21.3-28.2,46-53.2,69.7-79.2
		c11.8-13,22.7-26.6,32.5-41.2c2.5,7.4,2.4,10.1-0.8,22.5c-3.6,14.4-8.5,28.5-10.4,43.4c-0.5,4.3-3.4,8.3-5.4,12.4
		c-28.1,57.8-67.1,107.2-115.7,149.1C206.6,544.2,191.7,559.4,180,577.9z"/>
	<path class="st2" d="M724.7,302.9c8.4,11.7,17.1,22.9,26.4,33.7c18.4,21.4,38.7,41,56.9,62.6c27.1,32,50.8,66.3,70.4,103.4
		c9.1,17.2,16.9,34.9,20.3,54.2c1.2,6.8,2,13.7,1.8,20.7c-0.5-0.1-0.9-0.1-1-0.3c-12.9-21-30.9-37.4-49.2-53.5
		c-47.6-41.9-84.6-91.7-111.7-149c-3.4-7.2-3.3-15.1-5.2-22.6c-3.2-12.5-7.6-24.7-9.6-37.6C723,310.6,724.6,307,724.7,302.9z"/>
	<path class="st2" d="M784.3,113.6c3.3,15.4,11.3,28.6,17.2,42.5c7.4,17.3,12.3,35.1,10.3,54.3c-1,9.2-4,17.6-8.5,25.6
		c-1.8,3.1-2.8,3.4-5.3,0.6c-12.6-14-25-28.2-38.9-40.9c-15.5-14.2-32.3-26-53.5-30.1c-12.6-2.4-25.2-2.3-37.4,2.3
		c-2.3,0.9-3.5,0.2-4.9-1.5c-6.5-7.9-13.8-15-23.5-19c-2.6-1.1-2.2-2.5-1.3-4.5c4-8.6,11.2-13.2,19.9-15.7
		c13.5-3.8,27.4-4.9,41.4-5.1c15.6-0.2,31.1,0.2,46.7,0.1C759.6,122,772,119.4,784.3,113.6z"/>
	<path class="st2" d="M429.4,130.4c-3.5,4.1-7.1,7.6-11.4,10.3c-3.8,2.5-7.9,3.9-12.4,2.4c-1.8-0.6-3.3-0.5-4,1.4
		c-0.7,1.9,0.4,3,2,3.8c5.7,2.9,10.4,7.2,15.7,10.6c2.4,1.6,1.9,2.4,0.4,4.3c-3,3.9-5.8,5.1-11.2,3.5c-22.2-6.5-42.9-1.7-62.4,9.8
		c-18.2,10.6-32.5,25.6-46.6,40.9c-6.6,7.1-13.1,14.4-20,22c-5.6-7.4-8.7-15.6-10.3-24.3c-3.2-17.4,0.2-34.1,6.1-50.5
		c6-16.7,16-31.8,20.2-49.3c0.4-1.8,1.4-1.4,2.5-0.9c23.4,10.8,48.3,7.4,72.8,7.4c16.2,0,32.4,0.9,48.3,4.4
		C422.5,127.1,425.9,128.3,429.4,130.4z"/>
	<path class="st1" d="M211.4,308.3c22.8-9.3,37.4-27.3,53-44.2c18.1-19.5,35.8-39.3,54.1-58.5c13.3-13.9,28.2-25.9,46.8-32
		c14.9-4.9,30-5.9,45.5-0.4c-8.4,10.2-14.6,21.5-22.8,31.2c-22.4,26.6-49,48.8-76.6,69.8c-21.6,16.3-43.1,32.7-62.5,51.7
		c-1.4,1.4-2.6,1.3-4.3,0.8C232.5,322.9,221.6,316.9,211.4,308.3z"/>
	<path class="st1" d="M668.9,173.1c19.2-6.1,37.2-4.3,54.5,3.8c19.9,9.3,35.2,24.6,49.8,40.5c17.1,18.6,34.1,37.4,51.2,56
		c12.7,13.8,25.7,27.4,44.3,34.8c-10.4,8.8-21.6,15-34.2,18.6c-1.5,0.4-2.4,0-3.4-1c-25.3-24.8-54.5-45-81.9-67.1
		c-19.2-15.5-37.3-32-53.5-50.8C686.2,196.9,679.7,183.7,668.9,173.1z"/>
	<path class="st2" d="M281.1,808.2c-16.4-18.9-31.3-37.9-42.5-59.4c-1.9-3.6-0.6-7-0.1-10.4c7.1-43.4,25.3-82.3,48.7-119
		c6.4-10.1,12.9-20.1,20.7-30.2c-1.1,13.7-2.2,26.6-3.2,39.4c-2.6,31-4.2,62,4.6,92.2c2.9,9.8,1.4,17-3.7,25.5
		C294.4,765.2,286.7,785.8,281.1,808.2z"/>
	<path class="st2" d="M799.2,808.2c-5-19.4-11.7-37.4-20.5-54.5c-2.9-5.6-5.9-11.1-9.2-16.5c-1.5-2.5-1.7-4.5-0.8-7.2
		c7.8-25.4,10-51.4,8.4-77.8c-1.1-18.5-2.4-36.9-4.2-55.3c-0.2-2-0.2-4.1,0.5-6.5c3.6,5.1,7.2,10.1,10.7,15.2
		c21.9,32.6,40.6,66.9,51.5,104.9c3.1,10.9,5.3,22,7.1,33.2c0.4,2.3-0.4,4.1-1.4,6C830.2,770.9,815.3,789.4,799.2,808.2z"/>
	<path class="st1" d="M847.1,736.1c-7.2-39.5-22.5-74.9-42.5-108.5c-9.1-15.3-18.8-30.3-29.8-44.4c-4.9-6.3-5.2-13.4-6.3-20.5
		c-4.8-29.1-15-56.5-25.6-83.8c-6.4-16.4-12-33.1-16.7-50.1c-1.7-6.2-2.2-11.9,1.5-17.6c1.2-1.9,1.8-4.1,2.9-6.9
		c2.9,9,5.6,17.6,8.5,26.1c19.4,57.9,46.9,111.7,80.6,162.5c13,19.6,25,39.7,32.3,62.2c8.7,26.8,6.5,52.9-3.7,78.8
		C848,734.6,847.6,735.1,847.1,736.1z"/>
	<path class="st1" d="M349.6,404.5c2.1,4.8,3.8,9,5.7,13.1c0.8,1.8,0.5,3.4,0.1,5.1c-5.4,24.4-14.7,47.5-23.5,70.7
		c-10,26.2-18.2,52.9-21.7,80.8c-0.4,3.5-2.6,5.9-4.5,8.4c-19.7,27.2-37.8,55.3-51.4,86.1c-9.1,20.4-16.3,41.5-20.2,63.6
		c-0.2,0.9-0.5,1.9-0.8,2.9c-3.1-4.5-7.1-17.9-8.9-28.1c-4.9-28.3,2.3-54.2,15.3-79c12.6-24.1,28.6-46.2,42.5-69.6
		c28.1-47.3,50.3-97.2,66.1-150C348.6,407.4,349,406.2,349.6,404.5z"/>
	<path class="st2" d="M854.1,644.3c-1.2-2.8-2.5-5.9-3.8-8.9c-9.8-21.8-23.4-41.4-36.2-61.4C779,519,752.3,460.1,734.4,397.3
		c-1.5-5.1,1.5-9.4,1.6-14.4c5.5,10.2,10.7,20.6,16.6,30.5c2,3.3,4,6.7,5.9,10c22.6,39.4,46.1,78.3,71.1,116.2
		c12.1,18.3,20.5,38.5,24.3,60.4c2.5,14.3,3,28.7,1.2,43.1C855.2,643.7,855.3,644.3,854.1,644.3z"/>
	<path class="st2" d="M344.2,382.8c1.5,6.8,2.4,12.4,0.6,18.8c-19.6,67.1-49.6,129.3-88,187.5c-11.5,17.4-22.4,35.2-30.2,54.7
		c-0.2,0.4-0.5,0.7-1.1,1.6c-2-16.5-1.6-32.2,1.5-47.9c5.4-27.7,19.1-51.6,34.3-74.8c14.7-22.3,30.8-43.7,42.3-67.9
		c8.6-18.2,21.3-34,30.2-51.9C336.9,396.3,340.4,389.9,344.2,382.8z"/>
	<path class="st2" d="M884.6,442c-25.4-34.9-55.3-64-84-94.2c-23-24.2-45.1-49.2-62.5-78c-4.4-7.3-8.6-14.7-11.8-22.7
		c31.7,27.5,67.2,50.3,97.6,79.2c22.4,21.3,41.6,44.9,52.6,74.3C881.3,413.6,884.1,427,884.6,442z"/>
	<path class="st2" d="M195.8,440.8c1-33.3,14.8-61.5,35.1-87c19.4-24.2,43-43.9,67.5-62.6c18.4-14,36.8-28.1,54.2-43.4
		c0.4-0.4,1-0.7,2.2-1.5c-9.9,20.8-22.1,38.9-35.6,56.3c-20.9,27-45.1,51-68.6,75.5c-18.6,19.4-36.9,39.1-52.7,61
		C197.4,439.8,197,440.9,195.8,440.8z"/>
	<path class="st1" d="M199.1,495.6c-2.1-14.4-3.3-27.8-3.8-41.2c-0.1-2.1,1.2-3.7,2.3-5.3c9.5-14.6,20.7-27.9,32.4-40.6
		c24.7-26.7,50.1-52.6,74.4-79.6c24.2-26.9,45.6-56,59.7-89.8c2.2-5.2,7.4-7.9,11.1-11.9c-3.1,8.5-6.8,16.7-9.9,25.1
		c-4.4,12-8.1,24.2-9.3,37.1c-0.2,1.9-1.1,3.3-2,4.8c-15,24.3-34,45.4-53.6,65.9c-38.6,40.3-72.9,83.8-99.6,133
		C200.4,493.6,200.1,494.1,199.1,495.6z"/>
	<path class="st1" d="M704.8,226.8c7.1,5.4,11.6,12.5,15.2,20.6c11.6,25.7,27.9,48.4,45.9,70c24.2,29.1,51.7,55.1,77.1,83
		c13.5,14.8,26.8,29.9,38.3,46.5c2.5,3.6,3.8,7.2,3.6,11.7c-0.6,11.9-1.9,23.7-3.7,36.8c-5.6-9.3-10.4-17.6-15.4-25.9
		c-25.1-41.7-56.4-78.6-90-113.7c-17.8-18.6-34.7-38-48.6-59.9c-2.4-3.8-3-7.7-3.6-11.9c-2.9-18.9-9.9-36.4-17.8-53.6
		c-0.4-0.9-0.8-1.7-1.2-2.6C704.5,227.4,704.7,227,704.8,226.8z"/>
	<path class="st1" d="M217.1,685.7c-10.6-13.3-18.6-27.2-24.9-42.1c-6.6-15.8-10.7-32.2-12.3-49.2c-0.2-2.5,0.1-4.7,1.4-6.9
		c9.6-17.3,22.2-32.3,36.9-45.5c20.9-18.8,41.8-37.4,60-58.9c2-2.4,4.1-4.8,6.9-6.7c-5.2,7.9-10.3,15.8-15.5,23.7
		c-12.5,18.7-25.3,37.2-35.1,57.6c-14.7,30.7-19.7,62.8-13.3,96.5c0.4,2.3,0.4,4.5-0.2,6.7c-1,3.9-1.8,7.9-2.4,11.9
		C218,676.7,217.7,680.7,217.1,685.7z"/>
	<path class="st1" d="M797,479.4c1.8,0,2.5,0.5,3.1,1.3c19.4,23.5,42.4,43.3,64.7,63.8c11.2,10.2,20.5,22,29.2,34.4
		c5.7,8.1,6.9,16.2,5.2,25.5c-5.2,29.2-16.6,55.7-34.7,79.2c-0.3,0.4-0.7,0.6-1.5,1.4c-0.9-9.6-2.6-18.6-4.3-27.5
		c-0.8-4,1.1-8.6,1.7-12.9c4.7-35.6-3.7-68.4-21-99.4c-12.5-22.4-27.5-43.1-41.5-64.4C797.7,480.5,797.5,480.1,797,479.4z"/>
	<path class="st2" d="M360.3,324.7c8.1,23.8,22.3,43.5,34,64.5c12.2,22,18.2,45.5,18.1,70.7c0,3.2-0.5,6-2.3,8.7
		c-3.1,4.9-4.8,10.5-7.1,16.3c-5.4-6-9.7-12.5-14.1-18.8c-11.4-16.6-20.9-34.2-29.5-52.3c-10.6-22.3-12.8-44.8-5-68.3
		C356.6,338.9,358.2,332.3,360.3,324.7z"/>
	<path class="st2" d="M677.3,485.2c-2.6-7.5-5.3-13.9-8.7-19.9c-1.4-2.5-0.8-5.4-0.7-8.1c0.4-26.2,7.6-50.3,20.9-72.8
		c9.9-16.7,20.6-32.9,28-51c1-2.4,1.9-4.8,3-7.5c2.1,2.5,2,5.6,2.8,8.3c2.9,9.4,5.6,18.9,7.3,28.6c2.4,13.8,0.2,27.1-4.7,40
		C713.7,432.5,697,459.1,677.3,485.2z"/>
	<path class="st2" d="M410.2,543c2.8,1.5,3.5,4.7,5.5,6.9c1.2,1.3-0.1,2-0.7,2.8c-10.2,13.8-14.4,29.5-15.2,46.3
		c-0.8,17.1,1.7,34,3.4,50.9c3.4,32.5,3.8,65.1,1,97.7c-1.7,19.1-4.4,38-8.2,56.7c-0.4,1.7-0.8,3.5-1.3,5.8
		c-1.2-3.7-1.6-6.9-1.6-10.1c0-3.2-0.1-6.5,0.1-9.7c0.2-3.4,0.4-6.8,1.1-10.2c6.1-29.9,1.5-59-5.5-88c-5-20.6-9.4-41.4-8.3-62.9
		c1.1-21.3,8-40.8,17.4-59.6c3.5-7.1,7.5-14,11.3-20.9c1-1.9,2.3-3.6,1.4-5.9C410.3,542.9,410.2,543,410.2,543z"/>
	<path class="st2" d="M669,544c4.2,7.7,8.5,15.4,12.5,23.3c9.8,19.1,16.8,39.1,18.5,60.8c1.4,17.8-1.9,35.2-5.6,52.5
		c-4,19-8.9,37.8-10.7,57.2c-1.4,15.1,0.8,29.7,2.8,44.5c1.1,8.1,1.3,16.1,0.4,24.3c-0.1,1-0.2,1.9-1.4,2.9
		c-3.2-13.9-5.4-27.6-7.2-41.5c-4.1-31.9-5.3-64-2.9-96.1c1.4-19.2,3.8-38.4,5.2-57.6c1.4-20.2-1.4-39.7-12.4-57.4
		C664.1,550.2,664.2,550.2,669,544z"/>
	<path class="st2" d="M581.9,215.1c-5.7,3.2-11.6,3-17.6,2c-5-0.8-8.1-3.4-10.2-8.3c-7.2-16.9-12.6-34.6-20.9-51.2
		c-3.1-6.3-6.5-12.4-10.8-17.8c-1.6-2-1.7-3,0.3-5c4.2-4,7.9-8.5,11.9-12.8c1.4-1.6,2.3-3.2,1.1-5.2c-0.9-1.4-2.2-2.3-0.2-3.9
		c1.8-1.4,3.1-1.6,5.2-0.5c6.8,3.8,12.2,9.1,16.7,15.3c3.8,5.2,7.7,10.4,11.4,15.8c4.5,6.6,4.3,14.5,5.2,22
		c1.5,13.4,1.4,26.9,4.3,40.1C579,209,580.2,212.1,581.9,215.1z"/>
	<path class="st2" d="M414.5,148.7c9.1-3.6,15.2-10.4,21.3-17c6.1-6.5,12.1-13.1,17.9-19.8c5.4-6.2,10.8-11.7,19.4-13.9
		c11.5-3,22.7-4.7,34.3-0.8c3.7,1.3,4.6,2.6,2,6.3c-16.2,22.7-35.2,42.2-59.8,55.9c-5.4,3-10.2,3-15.7,1.1
		C426.7,158.1,420.8,153.5,414.5,148.7z"/>
	<path class="st2" d="M504.7,681.5c-0.6,22-6.1,41.5-14,60.5c-10.2,24.4-17.9,49.5-21.2,75.9c-3.3,27.1-2.6,54,2.1,81.8
		c-7.2-5.9-13.9-11.3-20.5-16.8c-1.3-1.1-0.8-2.7-0.9-4.1c-2.9-38,3.7-74.4,18.2-109.6c9.4-22.7,20.7-44.6,29.3-67.6
		C499.9,695.4,502,689.2,504.7,681.5z"/>
	<path class="st2" d="M608.6,899.8c1.5-11.1,3-21.3,3.6-31.6c2.6-40.8-4-80-19.3-117.8c-6.4-15.7-12.8-31.4-15.5-48.4
		c-0.9-5.9-1.8-11.8-1.5-19.3c2.7,7.6,4.9,14,7.2,20.3c9.2,24.4,21.4,47.4,31,71.6c13.1,33.2,18.1,67.7,16.2,103.2
		c-0.2,3.2-1.2,5.4-3.8,7.3C620.7,889.7,615.1,894.5,608.6,899.8z"/>
	<path class="st1" d="M552.8,226.4c-0.1,4.2,0.7,9.8-2.6,11.8c-2.3,1.4-6.4-3.2-9.6-5.3c-10.1-6.6-19.4-14.1-26.7-23.9
		c-8.2-11.1-11-24-11.8-37.4c-0.1-1.8-0.1-3.6-0.1-5.4c-0.2-15.5-0.2-15.5,12.7-24.3c2.4-1.6,2.8,0.2,3.6,1.3
		c5.8,7.9,10.2,16.5,14,25.4c6.7,15.4,11.8,31.5,18.9,46.7C552.7,218.8,552.9,222.7,552.8,226.4z"/>
	<path class="st2" d="M568.2,92.6c21.6-7.8,40.4-6.3,57.3,8.7c7.4,6.5,15.1,12.7,24.4,16.3c-4.2,7.6-9.8,13.9-15.2,20.3
		c-3.1,3.6-8.5,3.5-13,4.5c-1.4,0.3-1.9-1.6-2.6-2.6c-6.4-8.3-12.3-17.1-19.4-24.9C591.1,105.4,580.9,98.1,568.2,92.6z"/>
	<path class="st1" d="M614.8,143.5c-14,2.3-27,0.5-39.9-3.2c-2-0.6-3.1-2-4.3-3.6c-7.9-10.9-14.9-22.5-27.8-29.3
		c2.8-2,5.3-3.5,7.4-5.3c7.6-6.9,15.1-6.1,23.5-1c12.5,7.5,22.7,17.2,31.2,28.8C608.2,134.1,611.2,138.5,614.8,143.5z"/>
	<path class="st1" d="M773.8,111.6c-7.7,3.1-14.5,4.1-21.3,4.6c-12.3,1-24.6,0.2-37,0c-20.5-0.3-40.8,0.6-60.8,6
		c3.2-6.1,14.1-14.7,22.8-18.6c18.7-8.4,37.6-8.4,56.7-1.5C746.6,106.6,758.9,111.6,773.8,111.6z"/>
	<path class="st1" d="M425.7,122.3c-18-4.8-36.4-6.1-54.8-6c-11,0.1-22,0.5-33.1,0.4c-9.7,0-19.3-1-29.3-4.2
		c2.8-1.8,5.5-1.2,7.8-1.5c12.6-2,24-7.5,36.2-10.8c27.5-7.5,51.5-1.4,71.5,19.1C424.7,120.1,425.8,120.7,425.7,122.3z"/>
	<path class="st0" d="M541.7,517.3c-0.7-9-0.1-17.2,0.1-25.4c0-1.4,0.8-2.4,1.5-3.5c3.7-5.7,7.4-11.4,11.2-17
		c1.8-2.6,2.7-6.3,5.9-7.4c6-1.9,12-4.1,18.5-3c7.2,1.2,10.1,6.9,6.6,13.2c-1.8,3.2-4,6.3-6.4,9.1
		C568,495.9,554.5,505.7,541.7,517.3z"/>
	<path class="st1" d="M457.6,162.3c21.3-14.1,38.7-31.6,53.7-51.8c0.3-0.4,0.6-0.8,0.9-1.2c5-7,5-7,10.7-0.5
		c8.2,9.4,8.4,9.5-0.3,18.5c-16.4,17-35.9,29-59.2,34.2C461.4,161.9,459.5,162.1,457.6,162.3z"/>
	<path class="st0" d="M535.7,515.1c-12.1-12.9-26.3-22.8-36.1-36.9c-2.4-3.5-4.4-7.2-6.2-11c-1.4-3.1-0.4-5.2,3.2-5.1
		c8,0.1,15.7,2,23.6,2.9c1.4,0.1,1.7,1.4,2.4,2.2c1.8,2.3,3.2,4.9,5.1,7.1C538,486.1,536.5,500.2,535.7,515.1z"/>
	<path class="st1" d="M621.9,91.3c16.6-6.2,37.6-2.5,50,8.9c-5.7,3.3-11.3,6.8-15.8,11.7c-1.7,1.9-3.1,1.1-4.7,0.4
		c-6.8-2.8-12.6-7.1-18.3-11.7C629.5,97.6,625.9,94.6,621.9,91.3z"/>
	<path class="st1" d="M435.1,124.2c-5.8-7.8-12.1-14.7-20-19.9c9.1-7.8,31.2-10.9,43.8-6.1C450.9,106.9,443.1,115.4,435.1,124.2z"/>
	<path class="st0" d="M551.6,465.7c-4.3,6.5-8,12.2-12,18.3c-3.3-6.5-6.8-12-11-18.1C536.5,466.2,543.6,466.4,551.6,465.7z"/>
	<path class="st1" d="M423.2,168.1c3.3-4.8,3.3-4.8,9-2.1C429.1,167.6,426.3,167.9,423.2,168.1z"/>
	<path class="st0" d="M455.9,294.3c-8.6,7-17.9,9.7-28.3,7.4c-14-3.2-23.3-14.1-24.1-28.5c-0.2-3.1-0.9-4.2-4.3-4.3
		c-4.3,0-8.5-0.9-13.4-1.5c4,4.1,8,7.2,12.2,10.2c1.7,1.2,4,2.5,2.3,5c-1.7,2.4-3.7,0.9-5.4-0.4c-6.9-5.2-13.5-10.6-19.2-17
		c-1.1-1.3-2.9-2.4-1.7-4.5c1-1.7,2.7-1.7,4.3-1.2c2.9,0.9,3.5-1.4,4.7-3c9.3-12.2,19.2-23.7,34.4-28.9c9.1-3.1,18.6-4,28.2-4.3
		c2-0.1,3.7,0.4,3.7,2.8c-0.1,2-1.6,2.4-3.4,2.5c-5.2,0.4-10.3,1.1-15.4,1.6c-10.2,1-19,4.8-26.6,11.7c-5.4,4.9-10.4,10.2-15,15.9
		c-2.3,2.8-2.5,4,1.7,4.8c9.1,1.7,18,1,26.9-1.4c3.7-1,7.5-2,11.3-2.5c18.5-2.2,30.7,7.9,32.5,27.3c0.8,8,1,16.1,1.4,24.2
		c0.1,1.7-0.3,3.5-2.2,3.8c-2.2,0.3-3.1-1.2-3.3-3.3C456.8,305.3,456.4,300,455.9,294.3z"/>
	<path class="st0" d="M689.4,262.1c-3-7.5-7-14.1-13.6-18.7c-10.8-7.5-21.4-15.3-34.9-17.2c-2.1-0.3-3.9-1.3-3.3-3.8
		c0.6-2.4,2.6-2.2,4.4-1.7c21.6,6.1,41,15.3,51.5,36.8c1.5,3,2.9,3.8,5.8,2.7c1.2-0.4,2.5-0.8,3.7-1c1.3-0.2,2.7,0,3.4,1.4
		c0.6,1.3,0.3,2.5-0.6,3.6c-6.5,7.1-13.7,13.3-21.6,18.8c-1.5,1-3,1.4-4.2-0.4c-1.2-1.9-0.1-3.1,1.3-4.1c4.6-3.3,9.1-6.7,13.2-11
		c-5.3,0.6-10.2,1.2-15.1,1.6c-1.6,0.1-2.2,0.6-2.2,2.3c0,26.7-31.7,40.8-51.8,23.5c-0.2-0.2-0.6-0.1-1.2-0.2
		c-0.2,5-0.3,9.9-0.8,14.8c-0.2,1.9-0.3,4.7-3.4,4.3c-2.7-0.4-2.2-2.7-2.1-4.6c0.4-8.1,0-16.3,1.4-24.2c3.8-22.8,17.5-31.1,40-24.9
		c7.8,2.1,15.6,4.2,23.9,3.4C685.2,263.2,687.2,262.9,689.4,262.1z"/>
	<path class="st3" d="M637.5,408.4c0,1.6,0.1,3.2,0,4.9c-0.1,1.8,0.4,4.4-2.6,4.2c-2.9-0.2-2.9-2.6-2.7-4.8c0.5-5.1-0.2-10-1.4-14.9
		c-3.5-15-9.1-29.3-15.6-43.2c-0.6-1.2-1.1-2.3-1.6-3.5c-0.8-1.7,0.1-2.9,1.4-3.7c1.6-0.9,2.8,0,3.5,1.5
		C627.6,367.8,635.6,387.1,637.5,408.4z"/>
	<path class="st4" d="M442.6,409.6c-0.1-6.8,2.3-13,5.3-18.9c5.9-11.9,13.1-23,20.1-34.2c1-1.7,2.2-3.6,4.6-2.1
		c2.4,1.5,1.2,3.3,0.1,5c-6.3,9.9-12.5,20-18.1,30.4c-3.8,7.2-7.2,14.5-6.4,23c0.2,1.7,0,3.4-2.3,3.5c-2.2,0.1-3.2-1.1-3.3-3.2
		C442.6,411.8,442.6,410.7,442.6,409.6z"/>
	<path class="st2" d="M417.3,267c-0.2,12.4,4.6,19.6,14.2,21.4c8.9,1.7,16.5-3.5,20.3-14c5.6,8.6,4.5,14-4.2,19
		c-16.5,9.6-37.3-1.2-38.9-20.3C408.3,268.4,408.7,268.1,417.3,267z"/>
	<path class="st0" d="M434.9,263.3c3.7,1.4,9.1-0.3,11,5.4c1.5,4.4-0.8,9.9-5,12.5c-4.2,2.7-10.2,2.3-14-0.8
		c-3.8-3.1-5.2-8.7-3.4-13.1c0.7-1.8,1.8-2.9,3.9-3C429.8,264.1,432.2,263.7,434.9,263.3z"/>
	<path class="st2" d="M628.2,274.5c5.7,11.5,12.6,15.9,21.5,13.7c9.2-2.3,13.5-9,13.3-21.1c0.1-0.1,0.2-0.3,0.3-0.3
		c8.7,1.4,9.7,2.9,7.2,11.5c-2.8,9.5-9.1,15.6-18.6,17.8c-9.7,2.3-18.2-0.4-25.2-7.6c-1.8-1.8-2.3-3.6-1.5-6.1
		C626.1,279.8,626.5,277,628.2,274.5z"/>
	<path class="st0" d="M645.4,263.4c3,0.4,5.6,0.7,8.2,1c1.9,0.2,2.7,1.5,3.3,3.1c1.7,4.4,0.4,9.6-3.3,12.8c-3.9,3.3-9.8,3.8-14,1.1
		c-4.4-2.8-6.6-8-5.1-12.6C636.3,263,641.8,264.7,645.4,263.4z"/>
</g>
<rect x="-85" y="-208" class="st2" width="63" height="63"/>
</svg>
